<svg width="10" height="14" viewBox="0 0 10 14" fill="none" xmlns="http://www.w3.org/2000/svg">
<path fill-rule="evenodd" clip-rule="evenodd" d="M4.59609 7.2512C4.27209 7.2512 3.94809 7.216 3.62409 7.128C2.41809 6.8112 1.46409 5.9312 1.06809 4.7872C0.834087 4.1008 0.816087 3.3792 0.996087 2.6928C1.42809 1.0912 2.92209 0 4.59609 0C6.27009 0 7.74609 1.0912 8.19609 2.6928C8.71809 4.6112 7.54809 6.6176 5.56809 7.128C5.24409 7.216 4.92009 7.2512 4.59609 7.2512ZM6.63009 4.1712C6.93609 3.0624 6.27009 1.936 5.13609 1.6368C4.77609 1.5488 4.41609 1.5488 4.07409 1.6368C2.94009 1.936 2.27409 3.0624 2.58009 4.1712C2.76009 4.8048 3.08409 5.0864 3.60609 5.456C3.93009 5.632 4.27209 5.7024 4.61409 5.7024C5.53209 5.7024 6.37809 5.0688 6.63009 4.1712Z" fill="white"/>
<path fill-rule="evenodd" clip-rule="evenodd" d="M7.72821 12.5312L7.20621 9.59204L5.11821 12.056C4.84821 12.3728 4.32621 12.3728 4.07421 12.056L1.98621 9.59204L1.46421 12.5312C1.41021 12.8832 0.996211 13.1296 0.618211 13.0768C0.258211 13.024 -0.0477893 12.672 0.00621069 12.32L0.780211 7.97284C0.870211 7.42724 1.82421 7.21604 2.20221 7.65604L4.59621 10.5072L6.99021 7.63844C7.35021 7.21604 8.30421 7.39204 8.41221 7.95524L9.18621 12.3024C9.24021 12.6544 8.95221 13.0064 8.57421 13.0592C8.19621 13.1296 7.78221 12.8832 7.72821 12.5312Z" fill="white"/>
</svg>
