<svg id="Layer_1" data-name="Layer 1" xmlns="http://www.w3.org/2000/svg" viewBox="0 0 129.94 128.4"><defs><style>.cls-1,.cls-2,.cls-3{stroke:#000;}.cls-1,.cls-3{stroke-miterlimit:10;}.cls-2{fill:#fff;stroke-linejoin:round;}.cls-3{fill:none;}</style></defs><path class="cls-1" d="M165.51,57.43a9.53,9.53,0,0,0-9.2-9.53h-.16c-.55,0-1.09.1-1.63.17a5.89,5.89,0,0,0-4.46,5.71,15.56,15.56,0,0,1-31.12,0h0a5.9,5.9,0,0,0-5.9-5.9h-24a5.9,5.9,0,0,0-5.9,5.9,15.56,15.56,0,1,1-31.12,0h0a5.9,5.9,0,0,0-5.9-5.9h0a9.55,9.55,0,0,0-9.55,9.55v92.72a9.54,9.54,0,0,0,9.53,9.55H156a9.54,9.54,0,0,0,9.55-9.51V57.43Z" transform="translate(-36.07 -31.8)"/><rect class="cls-2" x="10.15" y="51.28" width="109.75" height="67.16" rx="8.74"/><rect class="cls-1" x="23.87" y="0.5" width="15.29" height="31.12" rx="7.64"/><rect class="cls-1" x="90.78" y="0.5" width="15.29" height="31.12" rx="7.64"/><path d="M108.43,119.86c-.55-1-.1-1.73,1-1.73h5.13c1.1,0,1.55-.78,1-1.73L102.21,93.27a1.06,1.06,0,0,0-2,0L86.86,116.4c-.55.95-.1,1.73,1,1.73H93c1.1,0,1.55.78,1,1.73l-7.14,12.36c-.55.95-.1,1.73,1,1.73H95a2,2,0,0,1,2,2v4.1a2,2,0,0,0,2,2h4.49a2,2,0,0,0,2-2V136a2,2,0,0,1,2-2h7.1c1.1,0,1.55-.78,1-1.73Z" transform="translate(-36.07 -31.8)"/><path class="cls-3" d="M108.43,119.86c-.55-1-.1-1.73,1-1.73h5.13c1.1,0,1.55-.78,1-1.73L102.21,93.27a1.06,1.06,0,0,0-2,0L86.86,116.4c-.55.95-.1,1.73,1,1.73H93c1.1,0,1.55.78,1,1.73l-7.14,12.36c-.55.95-.1,1.73,1,1.73H95a2,2,0,0,1,2,2v4.1a2,2,0,0,0,2,2h4.49a2,2,0,0,0,2-2V136a2,2,0,0,1,2-2h7.1c1.1,0,1.55-.78,1-1.73Z" transform="translate(-36.07 -31.8)"/></svg>