<svg width="8" height="15" viewBox="0 0 8 15" fill="none" xmlns="http://www.w3.org/2000/svg">
<g clip-path="url(#clip0)">
<path d="M1.75672 13.7H1.75645C1.68892 13.6998 1.62293 13.6786 1.5682 13.6391C1.51343 13.5995 1.47268 13.5435 1.45253 13.479C1.43238 13.4144 1.43409 13.3452 1.45738 13.2817C1.48066 13.2183 1.52407 13.1643 1.58065 13.1274L1.58174 13.1267L1.58174 13.1267C1.82608 12.9717 2.088 12.8446 2.36227 12.7481L2.36503 12.7471L2.36505 12.7472L2.44489 12.7217L2.44532 12.7215C2.87666 12.5859 3.19396 12.4529 3.40145 12.3249C3.61687 12.192 3.68125 12.0852 3.68125 12.0126V8.80494C3.68125 8.78124 3.6727 8.74465 3.64993 8.69382C3.62776 8.64433 3.59532 8.5883 3.55534 8.52774C3.47543 8.4067 3.37193 8.27718 3.27632 8.15761C3.18597 8.05054 3.09894 7.94091 3.02688 7.82979C2.97194 7.74508 2.9084 7.66705 2.83811 7.58073C2.82493 7.56455 2.81152 7.54807 2.79788 7.5312L2.79782 7.53113L2.79254 7.5246C2.6152 7.30492 2.41895 7.06183 2.25616 6.71544C2.0915 6.36509 1.96296 5.91365 1.91406 5.27566C1.85434 4.52351 1.90966 3.2835 1.98124 2.2191C2.05294 1.15292 2.14168 0.253457 2.15072 0.178254L2.25 0.190191M1.75672 13.7L2.87198 7.4638C2.5152 7.02184 2.10968 6.51949 2.01375 5.26788C1.89563 3.78038 2.2325 0.335753 2.25 0.190191M1.75672 13.7H6.2411V13.6L6.24276 13.7C6.30943 13.6989 6.37433 13.6773 6.42811 13.6379C6.48194 13.5985 6.52201 13.5431 6.54199 13.4795C6.56199 13.4158 6.56069 13.3475 6.5383 13.2846C6.51593 13.2217 6.47383 13.1679 6.4186 13.1305L6.41863 13.1304L6.41608 13.1288C6.17174 12.9738 5.90982 12.8468 5.63554 12.7502L5.63556 12.7502L5.63277 12.7493L5.55293 12.7238L5.55257 12.7237C5.12232 12.5881 4.80556 12.455 4.59833 12.327C4.38317 12.1942 4.31875 12.0873 4.31875 12.0148V8.80707C4.31875 8.78236 4.32744 8.74526 4.35011 8.69451C4.37225 8.64497 4.40464 8.58911 4.44459 8.52879C4.52201 8.4119 4.62148 8.28752 4.71474 8.17092L4.72451 8.15871L4.72464 8.15855C4.73024 8.15151 4.73583 8.14449 4.7414 8.1375C4.82415 8.03366 4.90283 7.93492 4.97181 7.83389C5.02769 7.75204 5.08892 7.67532 5.15627 7.59093C5.17135 7.57203 5.18673 7.55276 5.20243 7.53295C5.38127 7.31195 5.57878 7.06761 5.74266 6.71786C5.90686 6.36744 6.03538 5.91581 6.08594 5.2779C6.14567 4.52415 6.08952 3.28403 6.01753 2.21999C5.94707 1.17857 5.86081 0.29782 5.85016 0.189081L5.84953 0.182594L5.84952 0.18254C5.84182 0.104071 5.80423 0.0318681 5.74505 -0.0201599C5.68601 -0.072066 5.60966 -0.100284 5.53105 -0.0999968M1.75672 13.7L5.75 0.192316M2.25 0.190191L2.15059 0.179387C2.15905 0.101494 2.19695 0.0300682 2.25605 -0.0213087C2.31499 -0.0725549 2.3909 -0.100346 2.469 -0.0999968M2.25 0.190191C2.2557 0.137784 2.28124 0.0893017 2.32166 0.0541569C2.36208 0.0190122 2.4145 -0.000287972 2.46875 3.24822e-06H5.53125M2.469 -0.0999968C2.46909 -0.0999963 2.46919 -0.0999958 2.46929 -0.0999953L2.46875 -2.30301e-06V-0.0999968H2.469ZM2.469 -0.0999968H5.53105M5.53105 -0.0999968C5.53097 -0.0999965 5.53089 -0.0999961 5.53081 -0.0999958L5.53125 3.24822e-06M5.53105 -0.0999968H5.53125V3.24822e-06M5.53125 3.24822e-06C5.58584 -0.000236539 5.63855 0.0193599 5.67903 0.0549434C5.7195 0.0905269 5.74482 0.139526 5.75 0.192316M5.75 0.192316L5.75063 0.198752C5.7721 0.41796 6.103 3.79672 5.98625 5.27C5.88672 6.52588 5.48203 7.02844 5.12438 7.47044C5.10909 7.48973 5.09394 7.50871 5.07896 7.52747C5.01145 7.61205 4.94741 7.69228 4.88922 7.7775C4.8224 7.87537 4.74592 7.97135 4.66251 8.07605C4.65717 8.08274 4.6518 8.08948 4.64641 8.09625L4.6355 8.10989C4.44716 8.34537 4.21875 8.63092 4.21875 8.80707V12.0148C4.21875 12.2751 4.65625 12.546 5.5225 12.8191L5.75 0.192316ZM4.42715 7.48498L4.42724 7.48504C4.50654 7.36949 4.59276 7.26217 4.67381 7.16126C4.67808 7.15596 4.68233 7.15067 4.68656 7.14539L4.68674 7.14517C4.85425 6.93778 5.01727 6.73569 5.15055 6.44822C5.28359 6.16127 5.38904 5.78428 5.43044 5.22962L5.43047 5.22917C5.52558 4.02809 5.30166 1.39542 5.22039 0.525003H2.75785C2.67754 1.39569 2.4536 4.02815 2.54767 5.22926C2.59176 5.78333 2.69879 6.16048 2.83208 6.4478C2.96356 6.73122 3.12242 6.93181 3.28422 7.1361L3.29157 7.14539C3.30347 7.16022 3.31555 7.17517 3.32774 7.19027C3.40129 7.28134 3.47931 7.37796 3.55132 7.48568M4.42715 7.48498L3.46844 7.54163M4.42715 7.48498L4.42471 7.48893C4.37988 7.56121 4.31631 7.64118 4.24262 7.73387C4.2329 7.7461 4.223 7.75855 4.21295 7.77123M4.42715 7.48498L3.98907 8.23225C4.00872 8.20291 4.02917 8.17357 4.05023 8.14427C4.03043 8.11541 4.0101 8.08664 3.98929 8.05796M3.55132 7.48568C3.55141 7.48581 3.5515 7.48594 3.55159 7.48607L3.46844 7.54163M3.55132 7.48568C3.55123 7.48554 3.55114 7.48541 3.55105 7.48528L3.46844 7.54163M3.55132 7.48568C3.58934 7.54138 3.63435 7.59995 3.68368 7.66415C3.70994 7.69833 3.73743 7.7341 3.76574 7.77188M3.46844 7.54163C3.50802 7.59966 3.55613 7.66229 3.60684 7.7283C3.6332 7.76262 3.66026 7.79784 3.68719 7.83382C3.77251 7.9366 3.85384 8.04002 3.92807 8.14409C3.94789 8.11531 3.96835 8.08658 3.98929 8.05796M3.76574 7.77188C3.7652 7.77123 3.76467 7.77059 3.76413 7.76994L3.68719 7.83381L3.76724 7.77389C3.76674 7.77321 3.76624 7.77254 3.76574 7.77188ZM3.76574 7.77188C3.84392 7.86611 3.91929 7.96151 3.98929 8.05796M3.98929 8.05796C4.06059 7.96051 4.13737 7.86433 4.21295 7.77123M4.21295 7.77123C4.21282 7.77139 4.2127 7.77154 4.21257 7.7717L4.29094 7.83382L4.2133 7.77079C4.21318 7.77094 4.21307 7.77108 4.21295 7.77123ZM3.99999 12.6568C4.15778 12.8016 4.35683 12.9194 4.55561 13.0147C4.5996 13.0358 4.64383 13.0559 4.68789 13.075H3.31165C3.35572 13.0559 3.39995 13.0358 3.44396 13.0147C3.64284 12.9195 3.84213 12.8016 3.99999 12.6568Z" fill="white" stroke="white" stroke-width="0.2"/>
<path d="M2.35938 2.22501H5.53125C5.61487 2.22501 5.69562 2.19277 5.75561 2.1345C5.81569 2.07613 5.85 1.99634 5.85 1.91251C5.85 1.82868 5.81569 1.74889 5.75561 1.69052C5.69562 1.63225 5.61487 1.60001 5.53125 1.60001H2.35938C2.27576 1.60001 2.195 1.63225 2.13502 1.69052C2.07493 1.74889 2.04062 1.82868 2.04062 1.91251C2.04062 1.99634 2.07493 2.07613 2.13502 2.1345C2.195 2.19277 2.27576 2.22501 2.35938 2.22501Z" fill="white" stroke="white" stroke-width="0.2"/>
</g>
<defs>
<clipPath id="clip0">
<rect width="8" height="15" fill="white"/>
</clipPath>
</defs>
</svg>
