<svg width="16" height="16" viewBox="0 0 16 16" fill="none" xmlns="http://www.w3.org/2000/svg">
<path fill-rule="evenodd" clip-rule="evenodd" d="M11.6244 3.52696C10.7064 3.50856 9.77036 3.49016 9.21236 4.31816C9.50036 4.35496 9.80637 4.41016 10.1124 4.46536C11.3904 4.70456 12.9024 4.98056 13.6584 3.61896C13.7124 3.50856 13.7664 3.39816 13.8024 3.26936C13.1544 3.54536 12.3984 3.54536 11.6244 3.52696ZM6.09836 10.0222C4.24436 10.3902 2.42636 9.15736 2.06636 7.26216C1.76036 5.69816 2.53436 4.11576 3.93836 3.41656C5.25236 2.75416 6.85436 3.01176 7.89836 4.07896C8.69036 2.16536 10.2024 2.20216 11.6604 2.23896C12.6144 2.25736 13.5684 2.27576 13.9644 1.39256C14.2344 0.785361 15.0804 0.858961 15.1884 1.77896C15.2424 2.22056 15.2244 2.60696 15.1704 2.97496C15.0984 3.45336 14.9544 3.87656 14.7564 4.24456C13.5504 6.39736 11.5704 6.02936 9.89636 5.71656C9.46436 5.64296 9.06836 5.56936 8.76236 5.55096C9.14036 6.85736 8.76236 8.29256 7.73636 9.21256C7.25036 9.61736 6.69236 9.89336 6.09836 10.0222ZM7.35836 6.19496C7.14236 5.10936 6.11636 4.41016 5.05436 4.61256C4.71236 4.68616 4.42436 4.83336 4.17236 5.05416C3.36236 5.79016 3.27236 7.04136 3.99236 7.88776C4.31636 8.27416 4.78436 8.51336 5.30636 8.56856C5.84636 8.56856 6.29636 8.47656 6.67436 8.16376C7.21436 7.68536 7.50236 6.91256 7.35836 6.19496Z" fill="white"/>
<path fill-rule="evenodd" clip-rule="evenodd" d="M8.72821 15.1267L8.20621 12.1875L6.11821 14.6515C5.84821 14.9683 5.32621 14.9683 5.07421 14.6515L2.98621 12.1875L2.46421 15.1267C2.41021 15.4787 1.99621 15.7251 1.61821 15.6723C1.25821 15.6195 0.952211 15.2675 1.00621 14.9155L1.78021 10.5683C1.87021 10.0227 2.82421 9.8115 3.20221 10.2515L5.59621 13.1027L7.99021 10.2339C8.35021 9.8115 9.30421 9.9875 9.41221 10.5507L10.1862 14.8979C10.2402 15.2499 9.95221 15.6019 9.57421 15.6547C9.19621 15.7251 8.78221 15.4787 8.72821 15.1267Z" fill="white"/>
</svg>
