<svg width="53" height="128" viewBox="0 0 53 128" fill="none" xmlns="http://www.w3.org/2000/svg">
<g clip-path="url(#clip0)">
<path d="M46.4901 128H5.49009C5.06194 127.999 4.64547 127.86 4.30194 127.605C3.95841 127.349 3.70595 126.99 3.58169 126.58C3.45743 126.171 3.46793 125.732 3.61165 125.329C3.75537 124.925 4.02472 124.579 4.38009 124.34C6.5553 122.919 8.88745 121.755 11.3301 120.87L12.0601 120.63C20.0001 118.06 24.0001 115.51 24.0001 113.06V82.87C24.0001 81.21 21.8301 78.42 20.0901 76.18C19.2701 75.18 18.5001 74.18 17.8701 73.18C17.2401 72.18 16.4901 71.27 15.7201 70.29C12.4501 66.12 8.72009 61.4 7.84009 49.58C6.76009 35.58 9.84009 3.15997 10.0001 1.78997C10.0522 1.29673 10.2856 0.840425 10.6552 0.509651C11.0248 0.178877 11.5041 -0.00277136 12.0001 -3.04637e-05H40.0001C40.4992 -0.00228729 40.9811 0.18215 41.3512 0.517053C41.7212 0.851957 41.9527 1.31312 42.0001 1.80997C42.1301 3.17997 45.2401 35.57 44.1601 49.6C43.2501 61.42 39.5501 66.15 36.2801 70.31C35.5101 71.31 34.7801 72.22 34.1301 73.2C33.4801 74.18 32.7301 75.14 31.9101 76.2C30.1701 78.44 28.0001 81.2 28.0001 82.89V113.08C28.0001 115.53 32.0001 118.08 39.9201 120.65L40.6501 120.89C43.0928 121.775 45.4249 122.939 47.6001 124.36C47.9468 124.602 48.2079 124.947 48.346 125.347C48.4841 125.746 48.4921 126.179 48.3688 126.584C48.2455 126.988 47.9973 127.343 47.6597 127.597C47.3222 127.852 46.9127 127.993 46.4901 128V128ZM14.6401 124H37.3701C33.9901 122.87 28.8201 120.91 26.0001 117.8C23.1801 120.91 18.0001 122.87 14.6301 124H14.6401ZM13.8101 3.99997C13.1601 11.13 10.9101 37.46 11.8101 49.29C12.6301 59.9 15.8101 63.94 18.8101 67.84C19.5901 68.84 20.4001 69.84 21.1401 70.98C21.6901 71.81 22.4201 72.74 23.1401 73.73C24.1401 74.97 25.0801 76.22 25.9001 77.48C26.7201 76.22 27.6901 74.96 28.6601 73.73C29.4301 72.73 30.1601 71.81 30.6601 70.98C31.4001 69.87 32.2101 68.84 32.9901 67.84C36.0501 63.94 39.2201 59.91 39.9901 49.29C40.9001 37.46 38.6501 11.13 37.9901 3.99997H13.8101Z" fill="white"/>
<path d="M40 20H11C10.4696 20 9.96086 19.7893 9.58578 19.4142C9.21071 19.0391 9 18.5304 9 18C9 17.4696 9.21071 16.9609 9.58578 16.5858C9.96086 16.2107 10.4696 16 11 16H40C40.5304 16 41.0391 16.2107 41.4142 16.5858C41.7893 16.9609 42 17.4696 42 18C42 18.5304 41.7893 19.0391 41.4142 19.4142C41.0391 19.7893 40.5304 20 40 20Z" fill="white"/>
</g>
<defs>
<clipPath id="clip0">
<rect width="53" height="128" fill="white"/>
</clipPath>
</defs>
</svg>
